<svg width="32" height="32" viewBox="0 0 32 32" xmlns="http://www.w3.org/2000/svg">
  <!-- Background circle with WordPress blue gradient -->
  <defs>
    <linearGradient id="wpGradient" x1="0%" y1="0%" x2="100%" y2="100%">
      <stop offset="0%" style="stop-color:#21759b;stop-opacity:1" />
      <stop offset="100%" style="stop-color:#0073aa;stop-opacity:1" />
    </linearGradient>
    <linearGradient id="aiGradient" x1="0%" y1="0%" x2="100%" y2="100%">
      <stop offset="0%" style="stop-color:#667eea;stop-opacity:1" />
      <stop offset="100%" style="stop-color:#764ba2;stop-opacity:1" />
    </linearGradient>
  </defs>
  
  <!-- Main circle background -->
  <circle cx="16" cy="16" r="15" fill="url(#wpGradient)" stroke="#ffffff" stroke-width="1"/>
  
  <!-- WordPress W letter (simplified) -->
  <path d="M8 10 L10 22 L12 16 L14 22 L16 10 L14 10 L13 18 L12 14 L11 18 L10 10 Z" fill="white" opacity="0.9"/>
  
  <!-- AI Neural network nodes -->
  <circle cx="20" cy="12" r="1.5" fill="url(#aiGradient)"/>
  <circle cx="24" cy="16" r="1.5" fill="url(#aiGradient)"/>
  <circle cx="20" cy="20" r="1.5" fill="url(#aiGradient)"/>
  <circle cx="16" cy="24" r="1.5" fill="url(#aiGradient)"/>
  
  <!-- AI Connection lines -->
  <line x1="20" y1="12" x2="24" y2="16" stroke="url(#aiGradient)" stroke-width="1" opacity="0.7"/>
  <line x1="24" y1="16" x2="20" y2="20" stroke="url(#aiGradient)" stroke-width="1" opacity="0.7"/>
  <line x1="20" y1="20" x2="16" y2="24" stroke="url(#aiGradient)" stroke-width="1" opacity="0.7"/>
  <line x1="20" y1="12" x2="16" y2="24" stroke="url(#aiGradient)" stroke-width="0.8" opacity="0.5"/>
  
  <!-- Small AI dots for neural network effect -->
  <circle cx="22" cy="14" r="0.5" fill="white" opacity="0.8"/>
  <circle cx="22" cy="18" r="0.5" fill="white" opacity="0.8"/>
  <circle cx="18" cy="22" r="0.5" fill="white" opacity="0.8"/>
</svg>